<?xml version="1.0" standalone="no"?><!DOCTYPE svg PUBLIC "-//W3C//DTD SVG 1.1//EN" "http://www.w3.org/Graphics/SVG/1.1/DTD/svg11.dtd"><svg t="1667638174176" class="icon" viewBox="0 0 1024 1024" version="1.1" xmlns="http://www.w3.org/2000/svg" p-id="11339" width="200" height="200" xmlns:xlink="http://www.w3.org/1999/xlink"><path d="M867.9 955.4H154.7c-16.7 0-30.7-12.6-32.3-29.3L94.4 642C41.9 640.6 0.1 597.7 0 545.2V101.1c0-17.9 14.5-32.5 32.5-32.5h959c17.9 0 32.5 14.6 32.5 32.5V265c0 17.9-14.6 32.5-32.5 32.5h-29.2l-62.1 628.7c-1.6 16.6-15.6 29.3-32.3 29.2zM174.6 793.7l9.5 96.7h654.3l58.6-593H691.9v179.9c0 61-49.5 110.5-110.5 110.4h-0.1c-2.4 0-4.8-0.1-7.2-0.2-58.6-4.5-103.7-53.5-103.2-112.2v-93c0-11.3-8.7-20.6-19.9-21.3h-1.4c-0.4 0-1.1 0-1.7 0.1-7.6 0.8-14.2 5.5-17.3 12.4-1.6 3.2-2.4 6.7-2.4 10.3v38.6c0 6.3-0.6 12.5-1.8 18.7-3.7 18.4-12.7 35.2-26 48.4-3.3 3.3-6.9 6.4-10.7 9.2-5 3.7-10.3 6.9-15.9 9.5-2.9 1.3-5.7 2.5-8.5 3.5-0.7 0.3-1.5 0.5-2.2 0.7l-0.3 0.1-0.8 0.3c-0.4 0.1-0.7 0.2-1.1 0.4-9 2.7-18.3 4.1-27.6 4.1h-0.3c-11 0-21.9-2.1-32.1-6-0.9-0.4-1.9-0.8-2.8-1.1l-0.4-0.2-0.5-0.2-0.6-0.3c-17-7.6-31.5-19.8-41.8-35.4a95.552 95.552 0 0 1-16.4-53.5v-38.1c0-11.8-9.6-21.4-21.4-21.4h-1.7c-11.8 0-21.4 9.6-21.4 21.4v162.9c0 1.8 0 3.6-0.2 5.3 0 0.3 0 0.5-0.1 0.8-0.1 0.2 0 0.3 0 0.5-0.1 1.7-0.2 2.9-0.4 4.1 0 0.3-0.1 0.5-0.1 0.8l-0.1 0.4-0.6 4.2-0.1 0.4-0.1 0.5c-0.3 1.4-0.6 2.9-0.9 4.5 0 0.2-0.1 0.3-0.1 0.5-2.8 12.1-8 23.5-15.1 33.7l-0.2 0.2-0.2 0.3c-1 1.4-1.9 2.5-2.7 3.6l-0.1 0.2c-0.1 0.2-0.3 0.4-0.4 0.5-0.9 1.1-1.8 2.2-2.9 3.4l-0.3 0.3-0.3 0.3c-2.3 2.6-4.8 5.1-7.4 7.4l-0.4 0.3c-1.1 1-2.3 2-3.5 3l-0.2 0.1-0.1 0.1 10.7 108h498.2c17.9 0 32.5 14.5 32.5 32.5s-14.5 32.5-32.5 32.5l-491.7-0.1zM65 133.5v411.7c0 17.6 14.3 31.9 31.9 31.9 4.3 0 8.5-0.9 12.4-2.5l0.2-0.1c0.2-0.1 0.3-0.2 0.5-0.2 4.2-1.9 8-4.7 11-8.2 0 0 0-0.1 0.1-0.1 1.9-2.2 3.5-4.7 4.8-7.4l0.2-0.3c0.6-1.3 1.1-2.7 1.6-4.1v-0.1c0.4-1.3 0.7-2.6 0.9-3.9 0-0.3 0.1-0.6 0.1-0.9 0.2-1.4 0.3-2.8 0.3-4.2V382.4c0.1-47.7 38.7-86.3 86.4-86.3h1.8c47.6 0.1 86.3 38.7 86.3 86.3v38.1c0.1 16.8 13.1 30.6 29.8 31.8h0.2c15.3 0 28.2-11.7 29.7-26.9 0.1-1 0.2-2 0.2-3v-38.6c0-13.9 3.3-27.6 9.5-40 1.8-3.6 3.9-7.1 6.2-10.4 0.8-1.2 1.6-2.2 2.4-3.2 14.8-19.7 37.4-32 62-33.9h1c1.8-0.1 3.7-0.2 5.5-0.2 2.6 0 5.1 0.1 7.6 0.3 17.3 1.5 33.7 8.3 47.1 19.3 2.3 1.9 4.3 3.7 6.2 5.6 9.1 9 16 19.9 20.3 31.9 3.3 9.4 5 19.2 5 29.2v93c-0.5 24.5 18 45.2 42.5 47.4 1 0.1 2 0.1 3.1 0.1 25.1 0 45.5-20.3 45.6-45.4v-344H65z m626.9 0v99h267.2v-99H691.9z m72 660.2c-2.1 0-4.2-0.2-6.3-0.6-2.1-0.4-4.1-1-6.1-1.9-2-0.8-3.8-1.8-5.6-3-1.8-1.2-3.4-2.5-4.9-4.1-1.5-1.5-2.8-3.2-4-4.9-1.2-1.8-2.2-3.6-3-5.6-0.8-2-1.4-4-1.9-6.1-0.9-4.2-0.9-8.5 0-12.7 0.4-2.1 1-4.1 1.9-6.1 2.4-6 6.6-11 12-14.6 1.8-1.2 3.6-2.2 5.6-3 2-0.8 4-1.4 6.1-1.9 4.2-0.8 8.5-0.8 12.7 0 2.1 0.4 4.1 1 6.1 1.9 2 0.8 3.8 1.8 5.6 3 1.8 1.2 3.4 2.5 4.9 4 1.5 1.5 2.8 3.2 4 4.9 1.2 1.8 2.2 3.6 3 5.6 0.8 2 1.4 4 1.8 6.1 0.9 4.2 0.9 8.5 0 12.7-0.4 2.1-1 4.1-1.8 6.1s-1.8 3.8-3 5.6c-1.2 1.8-2.5 3.4-4 4.9-1.5 1.5-3.2 2.9-4.9 4.1-1.8 1.2-3.6 2.2-5.6 3-2 0.8-4 1.4-6.1 1.9-2.3 0.5-4.4 0.7-6.5 0.7z" fill="#333333" p-id="11340"></path></svg>